PathFileType	4	(X/Y/Z)	C:/Users/opensim2020/Desktop/walking_exp_matlab/subject06_walking21_straight_04.trc	
DataRate	CameraRate	NumFrames	NumMarkers	Units	OrigDataRate	OrigDataStartFrame	OrigNumFrames	
100.00	100.00	9	44	mm	100.00	2296	104	
Frame#	Time	LFHD			RFHD			LBHD			RBHD			C7			T10			CLAV			STRN			RBAK			LSHO			LUPA			LELB			LFRM			LWRA			LWRB			LFIN			RSHO			RUPA			RELB			RFRM			RWRA			RWRB			RFIN			LASI			RASI			LPSI			RPSI			LTHI			LKNE			LTIB			LANK			LHEE			LTOE			RTHI			RKNE			RTIB			RANK			RHEE			RTOE			*39			*40			*41			*42			*43			
		X1	Y1	Z1	X2	Y2	Z2	X3	Y3	Z3	X4	Y4	Z4	X5	Y5	Z5	X6	Y6	Z6	X7	Y7	Z7	X8	Y8	Z8	X9	Y9	Z9	X10	Y10	Z10	X11	Y11	Z11	X12	Y12	Z12	X13	Y13	Z13	X14	Y14	Z14	X15	Y15	Z15	X16	Y16	Z16	X17	Y17	Z17	X18	Y18	Z18	X19	Y19	Z19	X20	Y20	Z20	X21	Y21	Z21	X22	Y22	Z22	X23	Y23	Z23	X24	Y24	Z24	X25	Y25	Z25	X26	Y26	Z26	X27	Y27	Z27	X28	Y28	Z28	X29	Y29	Z29	X30	Y30	Z30	X31	Y31	Z31	X32	Y32	Z32	X33	Y33	Z33	X34	Y34	Z34	X35	Y35	Z35	X36	Y36	Z36	X37	Y37	Z37	X38	Y38	Z38	X39	Y39	Z39	X40	Y40	Z40	X41	Y41	Z41	X42	Y42	Z42	X43	Y43	Z43	X44	Y44	Z44	

14	0.130	1501.08972	911.21918	1646.86060	1369.84375	909.07471	1633.99268	1499.81958	1045.42334	1594.87573	1371.45715	1041.71033	1587.40198	1440.00171	1045.53418	1432.81763	1421.65991	1072.35010	1103.66968	1443.92468	933.16925	1358.10217	1446.53027	889.92584	1183.26648	1348.20264	1109.04688	1262.64917	1602.83398	1001.97632	1384.32031	1664.50293	1052.33911	1187.47803	1667.03955	1090.81165	1081.45459	1689.75708	1115.96118	934.30585	1658.15588	1085.84973	803.58655	1682.64124	1150.40918	820.08545	1687.98560	1140.97583	729.60852	1282.07678	971.50830	1395.16382	1178.55505	987.85553	1204.11560	1156.95361	961.46313	1086.51428	1138.33435	907.21973	981.14087	1176.49792	804.05255	875.59619	1131.31677	850.30017	856.58490	1131.16296	785.57281	804.32666	1538.58679	892.46558	957.30371	1323.20984	897.65051	942.09937	1514.45715	1052.26282	978.41675	1347.84253	1047.36316	968.72760	1613.96765	891.70636	654.36658	1586.75977	842.86279	500.09113	1587.33435	837.12579	241.08997	1545.30139	825.41455	69.78129	1500.60205	866.05304	55.61359	1536.62463	680.89117	43.35470	1275.52246	984.65533	602.24994	1291.12415	996.25909	475.25894	1307.62964	1206.13586	313.98056	1355.88074	1352.50610	207.68466	1404.88745	1383.92725	227.46504	1347.49988	1321.30029	53.45528	1439.54919	1009.63055	1685.90466												 
15	0.140	1503.25745	897.63525	1648.37463	1371.94592	895.86908	1636.05139	1502.24377	1031.64551	1595.86987	1373.84119	1028.34119	1588.90710	1442.11584	1031.83923	1433.78992	1423.33008	1057.56055	1105.14954	1445.43591	918.81543	1359.79895	1447.84595	874.97003	1185.08679	1350.18787	1095.01428	1263.90784	1604.52502	986.78235	1386.20361	1667.31689	1034.86169	1189.10718	1670.48462	1071.93823	1082.55957	1693.00256	1094.34277	934.70245	1660.09119	1063.71741	804.84424	1687.49707	1128.00879	820.84717	1690.59961	1117.00659	729.73102	1284.08618	958.46356	1397.12292	1180.94141	976.04138	1206.27319	1159.54419	950.58167	1088.32422	1140.32227	898.11810	981.92670	1177.45190	796.65027	874.27264	1132.71277	843.75049	856.00067	1131.93823	780.08716	802.29822	1540.74817	877.92102	959.24219	1324.82446	881.67761	943.46216	1515.77209	1037.36194	980.29425	1349.13110	1032.95190	969.52985	1614.97278	880.01129	654.85748	1587.33472	833.38599	500.03000	1586.77698	831.41595	240.71138	1544.73657	824.48218	69.85104	1500.16443	865.68494	55.93196	1535.77991	680.34454	42.71129	1276.67700	963.87628	601.68933	1292.11475	971.54370	474.55450	1308.11584	1180.74487	317.96378	1356.53223	1330.14917	216.46346	1406.00635	1358.67188	239.28304	1348.58777	1312.81152	59.10752	1442.23572	996.45880	1687.32825												 
16	0.150	1505.23206	884.03412	1650.10962	1373.86633	882.73120	1638.36365	1504.51501	1017.80371	1597.03601	1376.15906	1015.07227	1590.58289	1444.22742	1017.93500	1435.22009	1425.14465	1042.92383	1106.69983	1446.76807	904.59808	1361.56494	1448.99219	860.20496	1186.90723	1352.19714	1081.15088	1265.38635	1606.26697	971.62238	1388.06262	1670.11780	1017.34802	1190.55640	1673.96155	1052.81970	1083.46167	1697.26147	1073.00305	935.81317	1662.04968	1041.06018	805.96997	1691.74207	1104.57507	820.89838	1693.25244	1092.34448	729.70691	1285.84692	945.40833	1398.89380	1182.73340	963.72369	1208.09399	1161.86389	939.94501	1089.78833	1142.16675	889.35071	982.32544	1178.38000	789.62561	872.45129	1133.93323	837.83679	855.02521	1132.88989	775.08258	800.03241	1542.69690	863.56738	960.71826	1326.85327	869.21973	944.41437	1517.45825	1023.41278	982.35120	1350.67688	1018.93018	970.51099	1615.70386	869.71826	654.70276	1587.85681	824.80115	499.55402	1585.92407	827.41833	240.23338	1544.24219	824.03235	69.85712	1499.78186	865.51117	56.19553	1535.71338	679.98541	42.23221	1278.00220	943.54230	601.51678	1293.44128	946.68243	474.40012	1308.70374	1153.70020	320.22446	1357.17224	1306.24512	223.63098	1407.06079	1331.85681	248.74234	1350.38647	1302.35400	64.46468	1444.81946	983.29382	1688.87646												 
17	0.160	1507.09229	870.37128	1652.08582	1375.68872	869.47131	1640.83008	1506.62549	1003.96838	1598.46948	1378.24316	1001.58411	1592.48071	1446.26074	1003.74060	1437.18982	1427.08374	1028.44958	1108.38623	1448.08423	890.34845	1363.53943	1450.05042	845.68707	1188.75000	1354.41382	1067.51038	1267.18042	1608.02258	956.32935	1389.84363	1672.85913	999.67578	1191.86340	1677.43530	1033.55908	1084.24475	1700.38916	1050.41052	935.70685	1664.10608	1017.67499	807.06738	1696.13989	1080.80676	821.10657	1696.18591	1066.82251	729.76208	1287.27759	932.27734	1400.50330	1184.49890	951.88495	1209.59570	1163.82251	929.59216	1090.89392	1143.93091	880.91937	982.40540	1179.32690	783.08704	870.34015	1135.16541	831.97229	854.06879	1134.03906	770.29974	797.56799	1544.39075	849.13007	962.21021	1328.45667	858.74261	944.90692	1519.18506	1009.01428	984.19073	1352.29700	1005.38904	971.64606	1616.25403	859.80536	654.53900	1588.60938	817.21698	498.97879	1585.78918	825.49335	240.15706	1543.83093	823.82178	69.75928	1499.58118	865.50879	56.32027	1535.56250	680.15491	41.96852	1279.48364	923.50415	601.75122	1294.86389	921.76740	475.00970	1309.10583	1125.97192	320.95297	1357.75171	1282.06006	229.81879	1407.78271	1307.49475	255.96513	1352.27087	1282.61560	71.02667	1447.12622	970.02008	1690.69568												 
18	0.170	1508.74817	856.60962	1654.17822	1377.37219	856.08728	1643.20667	1508.62805	990.09546	1600.17688	1380.16479	988.05328	1594.51135	1448.22400	989.47723	1439.50549	1429.18774	1014.22095	1110.30786	1449.21545	876.22461	1365.59973	1451.09119	831.33368	1190.62000	1356.87744	1054.01978	1269.15210	1609.74341	941.00079	1391.61414	1675.47668	981.73138	1193.06409	1680.92883	1013.99280	1084.92236	1704.14563	1028.11841	936.36865	1666.19006	993.78192	808.16272	1699.76172	1055.96838	820.67755	1699.07983	1040.69421	730.18701	1288.52148	919.07336	1401.97266	1186.09045	940.27319	1210.66736	1165.52100	919.30133	1091.63892	1145.61462	872.69885	982.24152	1180.37170	776.90680	868.09711	1136.46680	826.38745	852.98218	1135.25549	766.00226	794.85901	1545.29761	835.57764	963.02051	1328.06787	841.06445	947.21930	1520.95691	994.90460	986.10895	1353.91699	992.13947	972.89813	1616.91504	850.04083	654.78308	1589.71484	810.78503	498.48279	1585.77100	824.29663	240.35396	1543.65039	823.91901	69.86169	1499.45056	865.68384	56.31279	1535.17114	679.94781	41.80630	1281.02332	903.54657	602.50055	1296.39673	896.92480	476.28085	1309.56006	1099.19678	321.68991	1358.53967	1258.11853	235.07533	1407.20325	1285.64868	261.02707	1354.71594	1253.17163	76.60852	1449.27490	956.58514	1692.64209												 
19	0.180	1510.19702	842.78821	1656.20618	1378.87549	842.68329	1645.47729	1510.44043	976.14380	1601.94031	1381.99561	974.53162	1596.47961	1450.09448	975.19238	1441.79614	1431.23901	1000.25171	1112.38171	1450.07788	861.95593	1367.37817	1452.11438	817.15430	1192.54321	1359.46484	1040.56848	1271.03137	1611.42322	925.63574	1393.43884	1678.07568	963.55273	1194.29016	1684.17517	994.25525	1085.56409	1707.43982	1005.18494	936.77795	1668.23560	969.23810	809.37250	1703.76343	1031.20691	820.97528	1701.74585	1014.07251	729.98883	1289.55847	905.89618	1403.44971	1187.53418	928.94958	1211.62524	1167.07849	909.27795	1092.30029	1147.25977	864.85962	981.90149	1181.59509	770.38538	866.06622	1137.97827	820.87988	851.79016	1136.47644	762.50464	792.16412	1546.34558	821.78339	964.19684	1329.90442	832.58850	947.63153	1522.58899	981.01855	988.13556	1355.39368	979.14984	974.31256	1617.77844	840.71222	655.55347	1591.08521	805.31750	498.15979	1586.18860	823.70166	240.71280	1543.73718	824.08234	70.09650	1499.34619	865.84326	56.34010	1535.65222	680.25171	41.74611	1282.74829	883.43854	603.82159	1298.16223	872.25446	478.27209	1311.25671	1073.60547	324.12689	1359.08643	1232.73193	238.75684	1406.23010	1263.90320	263.68082	1358.27771	1219.07532	80.93195	1451.14868	943.04474	1694.59680												 
20	0.190	1511.50793	828.95227	1658.31213	1380.12830	829.25189	1647.72900	1512.11169	962.21619	1603.73425	1383.63928	960.99786	1598.43762	1451.84265	961.05865	1443.98767	1433.21594	986.57050	1114.48938	1451.01807	847.99573	1369.38025	1453.11670	803.18604	1194.53113	1362.35010	1027.30945	1273.01196	1612.91809	910.28845	1395.30847	1680.48413	945.23279	1195.53345	1687.34973	974.13586	1086.36206	1710.38733	981.71326	937.14398	1670.51208	944.33746	810.71082	1707.16858	1005.53339	820.87006	1704.91248	986.83331	730.54913	1290.53662	892.69806	1404.94006	1189.34338	917.98767	1212.75964	1168.65698	899.40131	1093.08179	1148.95093	857.23608	981.61298	1182.68518	765.70868	863.67737	1139.46338	816.12177	850.70422	1137.78357	759.24744	789.62817	1547.09534	808.32874	965.48236	1329.28906	815.15015	950.68842	1524.05176	967.34320	990.19983	1356.79492	966.15240	975.98712	1618.54565	831.99347	656.67163	1592.51465	800.38684	498.00961	1586.52502	823.20490	241.05806	1543.78528	824.33655	70.21015	1499.31836	866.02454	56.39535	1535.91553	680.40607	41.69773	1284.57129	863.29987	606.03448	1300.27380	847.56909	480.89240	1312.85278	1047.90015	327.72241	1359.40955	1205.59607	240.12970	1405.32739	1239.95264	264.00372	1361.48853	1184.02905	83.45728	1452.81116	929.48969	1696.54858												 
21	0.200	1512.55786	814.99896	1660.36511	1381.24963	815.81964	1649.92725	1513.58508	948.14203	1605.51990	1385.16968	947.44775	1600.35510	1453.41797	947.05151	1446.09644	1435.23767	973.06488	1116.67493	1451.99329	833.92389	1371.40112	1454.15308	789.42133	1196.51282	1365.30139	1014.08398	1275.10974	1614.25977	894.93280	1397.27283	1682.54480	926.61841	1196.78760	1690.24927	953.76007	1087.24194	1713.40662	958.12347	937.94189	1672.52942	918.98602	811.99554	1710.79614	979.86963	821.44702	1708.17358	959.02448	731.36078	1291.51074	879.63660	1406.53210	1190.91443	906.92126	1214.19080	1170.40027	889.59302	1094.07947	1150.73352	849.89142	981.51422	1184.06628	760.83954	861.44092	1140.72961	812.07410	849.86359	1139.15479	756.45007	787.24884	1547.87366	794.95459	966.95721	1329.97266	802.17700	952.96869	1525.40820	953.85742	992.19879	1358.19800	953.14661	978.01373	1619.12146	823.68683	657.72437	1593.74683	795.46344	498.02097	1587.12781	822.75098	241.33261	1543.72205	824.60895	70.16338	1499.40186	866.28534	56.40863	1535.98364	680.62445	41.73745	1286.50439	842.99072	608.85687	1302.65503	822.97400	484.32974	1314.64917	1020.19250	329.40756	1360.04797	1177.28308	239.15341	1405.44250	1214.24963	262.14255	1364.12036	1148.66589	84.75307	1454.29321	915.88397	1698.46216												 
22	0.210	1513.53088	801.07147	1662.35583	1382.28943	802.21252	1651.98267	1514.96448	934.11310	1607.35303	1386.59143	933.76038	1602.27307	1454.98755	933.03345	1448.12231	1437.31909	959.75287	1118.81628	1452.88782	819.96393	1373.36670	1455.21741	775.60297	1198.54565	1368.01172	1000.84265	1277.16760	1615.50049	879.83447	1399.29773	1684.56995	907.94611	1198.26514	1692.91931	933.00848	1088.26062	1715.80359	933.72314	938.43945	1675.23572	893.20099	813.92493	1714.09558	953.66772	822.02930	1711.65576	930.58936	732.51862	1292.54749	866.58173	1408.23633	1193.05737	896.38281	1215.62964	1172.43103	879.83429	1095.29675	1152.59412	842.81506	981.66534	1185.39148	756.65216	859.28137	1142.40674	808.07800	848.90027	1140.40381	754.28491	784.97437	1548.73486	781.68842	968.45630	1330.83704	789.09991	955.48889	1526.57959	940.54797	994.14557	1359.50183	940.01770	980.16235	1619.61768	815.30328	658.93542	1594.59155	790.29437	497.95880	1587.55408	821.31567	241.43784	1543.77747	824.82788	70.20871	1499.56934	866.64081	56.43428	1535.99597	680.90088	41.78392	1288.23962	823.07465	612.12042	1304.90784	798.83179	488.29996	1316.21265	991.92877	329.97784	1361.45337	1148.65088	236.93828	1406.99780	1187.56860	258.54034	1366.03137	1111.85266	85.44652	1455.58691	902.15717	1700.37695												 
